<svg width="57" height="40" viewBox="0 0 57 40" fill="none" xmlns="http://www.w3.org/2000/svg">
<mask id="path-1-inside-1_2105_6190" fill="white">
<path d="M23.3296 32.3511C22.8521 32.9878 21.8174 33.7572 20.2256 34.6592C18.6868 35.5081 16.9889 36.3306 15.1318 37.1265C13.3278 37.8693 11.5503 38.4795 9.79932 38.957C8.04834 39.4346 6.69531 39.6203 5.74023 39.5142C3.9362 37.9754 2.55664 36.304 1.60156 34.5C0.646484 32.6429 0.168945 30.1491 0.168945 27.0186C0.168945 24.9492 0.513835 22.7207 1.20361 20.333C1.94645 17.9453 3.00765 15.5576 4.38721 13.1699C5.76676 10.7822 7.46468 8.50065 9.48096 6.3252C11.4972 4.14974 13.7788 2.23958 16.3257 0.594727L19.748 3.38037C18.6338 4.54769 17.6522 5.87419 16.8032 7.35986C15.9543 8.79248 15.238 10.2516 14.6543 11.7373C14.1237 13.223 13.7257 14.6821 13.4604 16.1147C13.1951 17.4943 13.0625 18.7412 13.0625 19.8555C13.0625 22.2432 13.7788 24.3125 15.2114 26.0635C16.644 27.7614 18.9256 28.6634 22.0562 28.7695L23.3296 32.3511ZM56.9165 32.3511C56.439 32.9878 55.4043 33.7572 53.8125 34.6592C52.2738 35.5081 50.5758 36.3306 48.7188 37.1265C46.9147 37.8693 45.1372 38.4795 43.3862 38.957C41.6353 39.4346 40.2822 39.6203 39.3271 39.5142C38.4782 38.7713 37.7088 38.002 37.019 37.2061C36.3293 36.3571 35.7456 35.4551 35.2681 34.5C34.7905 33.4919 34.4191 32.3776 34.1538 31.1572C33.8885 29.9368 33.7559 28.5573 33.7559 27.0186C33.7559 24.9492 34.1007 22.7207 34.7905 20.333C35.5334 17.9453 36.5946 15.5576 37.9741 13.1699C39.3537 10.7822 41.0516 8.50065 43.0679 6.3252C45.0841 4.14974 47.3657 2.23958 49.9126 0.594727L53.335 3.38037C52.1676 4.54769 51.1595 5.87419 50.3105 7.35986C49.5146 8.79248 48.8249 10.2516 48.2412 11.7373C47.7106 13.223 47.3127 14.6821 47.0474 16.1147C46.7821 17.4943 46.6494 18.7412 46.6494 19.8555C46.6494 22.2432 47.3657 24.3125 48.7983 26.0635C50.231 27.7614 52.486 28.6634 55.5635 28.7695L56.9165 32.3511Z"/>
</mask>
<path d="M23.3296 32.3511C22.8521 32.9878 21.8174 33.7572 20.2256 34.6592C18.6868 35.5081 16.9889 36.3306 15.1318 37.1265C13.3278 37.8693 11.5503 38.4795 9.79932 38.957C8.04834 39.4346 6.69531 39.6203 5.74023 39.5142C3.9362 37.9754 2.55664 36.304 1.60156 34.5C0.646484 32.6429 0.168945 30.1491 0.168945 27.0186C0.168945 24.9492 0.513835 22.7207 1.20361 20.333C1.94645 17.9453 3.00765 15.5576 4.38721 13.1699C5.76676 10.7822 7.46468 8.50065 9.48096 6.3252C11.4972 4.14974 13.7788 2.23958 16.3257 0.594727L19.748 3.38037C18.6338 4.54769 17.6522 5.87419 16.8032 7.35986C15.9543 8.79248 15.238 10.2516 14.6543 11.7373C14.1237 13.223 13.7257 14.6821 13.4604 16.1147C13.1951 17.4943 13.0625 18.7412 13.0625 19.8555C13.0625 22.2432 13.7788 24.3125 15.2114 26.0635C16.644 27.7614 18.9256 28.6634 22.0562 28.7695L23.3296 32.3511ZM56.9165 32.3511C56.439 32.9878 55.4043 33.7572 53.8125 34.6592C52.2738 35.5081 50.5758 36.3306 48.7188 37.1265C46.9147 37.8693 45.1372 38.4795 43.3862 38.957C41.6353 39.4346 40.2822 39.6203 39.3271 39.5142C38.4782 38.7713 37.7088 38.002 37.019 37.2061C36.3293 36.3571 35.7456 35.4551 35.2681 34.5C34.7905 33.4919 34.4191 32.3776 34.1538 31.1572C33.8885 29.9368 33.7559 28.5573 33.7559 27.0186C33.7559 24.9492 34.1007 22.7207 34.7905 20.333C35.5334 17.9453 36.5946 15.5576 37.9741 13.1699C39.3537 10.7822 41.0516 8.50065 43.0679 6.3252C45.0841 4.14974 47.3657 2.23958 49.9126 0.594727L53.335 3.38037C52.1676 4.54769 51.1595 5.87419 50.3105 7.35986C49.5146 8.79248 48.8249 10.2516 48.2412 11.7373C47.7106 13.223 47.3127 14.6821 47.0474 16.1147C46.7821 17.4943 46.6494 18.7412 46.6494 19.8555C46.6494 22.2432 47.3657 24.3125 48.7983 26.0635C50.231 27.7614 52.486 28.6634 55.5635 28.7695L56.9165 32.3511Z" fill="#111111"/>
<path d="M23.3296 32.3511L24.9296 33.5511L25.5736 32.6924L25.214 31.6811L23.3296 32.3511ZM20.2256 34.6592L21.1917 36.4103L21.2017 36.4048L21.2116 36.3992L20.2256 34.6592ZM15.1318 37.1265L15.8933 38.9758L15.9065 38.9704L15.9197 38.9648L15.1318 37.1265ZM5.74023 39.5142L4.44234 41.0358L4.90933 41.4341L5.51937 41.5019L5.74023 39.5142ZM1.60156 34.5L-0.177013 35.4147L-0.171576 35.4253L-0.166013 35.4358L1.60156 34.5ZM1.20361 20.333L-0.7061 19.7389L-0.712157 19.7583L-0.717815 19.7779L1.20361 20.333ZM4.38721 13.1699L2.65548 12.1694L4.38721 13.1699ZM16.3257 0.594727L17.5882 -0.956397L16.4613 -1.87368L15.2406 -1.08535L16.3257 0.594727ZM19.748 3.38037L21.1948 4.76132L22.6893 3.19563L21.0106 1.82925L19.748 3.38037ZM16.8032 7.35986L18.5238 8.37947L18.5319 8.36587L18.5397 8.35214L16.8032 7.35986ZM14.6543 11.7373L12.7928 11.006L12.7813 11.0351L12.7708 11.0646L14.6543 11.7373ZM13.4604 16.1147L15.4245 16.4924L15.427 16.4789L13.4604 16.1147ZM15.2114 26.0635L13.6635 27.33L13.6731 27.3417L13.6828 27.3532L15.2114 26.0635ZM22.0562 28.7695L23.9406 28.0995L23.4845 26.8168L22.1239 26.7707L22.0562 28.7695ZM56.9165 32.3511L58.5165 33.5511L59.1757 32.6721L58.7874 31.6443L56.9165 32.3511ZM53.8125 34.6592L54.7787 36.4103L54.7886 36.4048L54.7985 36.3992L53.8125 34.6592ZM48.7188 37.1265L49.4802 38.9758L49.4935 38.9704L49.5066 38.9648L48.7188 37.1265ZM39.3271 39.5142L38.0101 41.0193L38.4825 41.4326L39.1063 41.5019L39.3271 39.5142ZM37.019 37.2061L35.4668 38.4672L35.4869 38.4919L35.5077 38.5159L37.019 37.2061ZM35.2681 34.5L33.4606 35.3562L33.4697 35.3754L33.4792 35.3944L35.2681 34.5ZM34.7905 20.333L32.8808 19.7389L32.8748 19.7583L32.8691 19.7779L34.7905 20.333ZM49.9126 0.594727L51.1751 -0.956397L50.0482 -1.87368L48.8275 -1.08535L49.9126 0.594727ZM53.335 3.38037L54.7492 4.79458L56.3159 3.2279L54.5975 1.82925L53.335 3.38037ZM50.3105 7.35986L48.5741 6.36759L48.5681 6.37805L48.5622 6.38858L50.3105 7.35986ZM48.2412 11.7373L46.3797 11.006L46.3683 11.0351L46.3577 11.0646L48.2412 11.7373ZM47.0474 16.1147L49.0114 16.4924L49.0139 16.4789L47.0474 16.1147ZM48.7983 26.0635L47.2504 27.33L47.26 27.3417L47.2698 27.3532L48.7983 26.0635ZM55.5635 28.7695L57.4344 28.0627L56.9637 26.8166L55.6324 26.7707L55.5635 28.7695ZM21.7296 31.1511C21.5249 31.4239 20.8241 32.0212 19.2396 32.9191L21.2116 36.3992C22.8107 35.4931 24.1792 34.5517 24.9296 33.5511L21.7296 31.1511ZM19.2594 32.908C17.7865 33.7207 16.149 34.5146 14.344 35.2882L15.9197 38.9648C17.8288 38.1465 19.5872 37.2956 21.1917 36.4103L19.2594 32.908ZM14.3703 35.2771C12.6373 35.9907 10.9384 36.5733 9.27308 37.0275L10.3256 40.8866C12.1622 40.3856 14.0183 39.7479 15.8933 38.9758L14.3703 35.2771ZM9.27308 37.0275C7.58826 37.487 6.53195 37.5898 5.9611 37.5264L5.51937 41.5019C6.85867 41.6507 8.50842 41.3821 10.3256 40.8866L9.27308 37.0275ZM7.03813 37.9925C5.39562 36.5915 4.18858 35.1121 3.36914 33.5642L-0.166013 35.4358C0.9247 37.496 2.47677 39.3593 4.44234 41.0358L7.03813 37.9925ZM3.38014 33.5853C2.62512 32.1172 2.16895 29.9766 2.16895 27.0186H-1.83105C-1.83105 30.3216 -1.33215 33.1686 -0.177013 35.4147L3.38014 33.5853ZM2.16895 27.0186C2.16895 25.1702 2.47728 23.1303 3.12504 20.8881L-0.717815 19.7779C-1.44961 22.3111 -1.83105 24.7282 -1.83105 27.0186H2.16895ZM3.11333 20.9271C3.80785 18.6947 4.8061 16.4427 6.11894 14.1705L2.65548 12.1694C1.2092 14.6725 0.085051 17.1959 -0.7061 19.7389L3.11333 20.9271ZM6.11894 14.1705C7.41848 11.9213 9.02535 9.75897 10.9478 7.68472L8.0141 4.96567C5.90401 7.24233 4.11505 9.64318 2.65548 12.1694L6.11894 14.1705ZM10.9478 7.68472C12.8482 5.63432 15.0009 3.83117 17.4107 2.27481L15.2406 -1.08535C12.5567 0.647995 10.1463 2.66516 8.0141 4.96567L10.9478 7.68472ZM15.0631 2.14585L18.4855 4.9315L21.0106 1.82925L17.5882 -0.956397L15.0631 2.14585ZM18.3013 1.99942C17.0685 3.29091 15.9913 4.74954 15.0667 6.36759L18.5397 8.35214C19.313 6.99883 20.199 5.80446 21.1948 4.76132L18.3013 1.99942ZM15.0826 6.34026C14.1814 7.86108 13.4173 9.41641 12.7928 11.006L16.5158 12.4686C17.0586 11.0869 17.7271 9.72388 18.5238 8.37947L15.0826 6.34026ZM12.7708 11.0646C12.2073 12.6426 11.7801 14.2049 11.4939 15.7506L15.427 16.4789C15.6714 15.1594 16.0401 13.8034 16.5378 12.41L12.7708 11.0646ZM11.4964 15.7371C11.2131 17.2105 11.0625 18.5867 11.0625 19.8555H15.0625C15.0625 18.8957 15.1772 17.7781 15.4245 16.4924L11.4964 15.7371ZM11.0625 19.8555C11.0625 22.6772 11.9215 25.2009 13.6635 27.33L16.7593 24.797C15.6361 23.4241 15.0625 21.8091 15.0625 19.8555H11.0625ZM13.6828 27.3532C15.61 29.6372 18.531 30.6512 21.9884 30.7684L22.1239 26.7707C19.3203 26.6756 17.6781 25.8856 16.74 24.7737L13.6828 27.3532ZM20.1717 29.4396L21.4452 33.0211L25.214 31.6811L23.9406 28.0995L20.1717 29.4396ZM55.3165 31.1511C55.1119 31.4239 54.411 32.0212 52.8265 32.9191L54.7985 36.3992C56.3976 35.4931 57.7661 34.5517 58.5165 33.5511L55.3165 31.1511ZM52.8463 32.908C51.3734 33.7207 49.7359 34.5146 47.9309 35.2882L49.5066 38.9648C51.4157 38.1465 53.1742 37.2956 54.7787 36.4103L52.8463 32.908ZM47.9573 35.2771C46.2242 35.9907 44.5253 36.5733 42.86 37.0275L43.9125 40.8866C45.7491 40.3856 47.6052 39.7479 49.4802 38.9758L47.9573 35.2771ZM42.86 37.0275C41.1752 37.487 40.1189 37.5898 39.548 37.5264L39.1063 41.5019C40.4456 41.6507 42.0953 41.3821 43.9125 40.8866L42.86 37.0275ZM40.6442 38.009C39.8596 37.3225 39.1559 36.6179 38.5304 35.8962L35.5077 38.5159C36.2617 39.386 37.0968 40.2202 38.0101 41.0193L40.6442 38.009ZM38.5713 35.9449C37.9713 35.2064 37.4676 34.427 37.0569 33.6056L33.4792 35.3944C34.0236 36.4832 34.6873 37.5078 35.4668 38.4672L38.5713 35.9449ZM37.0755 33.6438C36.6705 32.7886 36.3449 31.8213 36.1082 30.7324L32.1995 31.5821C32.4933 32.9339 32.9106 34.1951 33.4606 35.3562L37.0755 33.6438ZM36.1082 30.7324C35.8792 29.6793 35.7559 28.446 35.7559 27.0186H31.7559C31.7559 28.6686 31.8978 30.1944 32.1995 31.5821L36.1082 30.7324ZM35.7559 27.0186C35.7559 25.1702 36.0642 23.1303 36.712 20.8881L32.8691 19.7779C32.1373 22.3111 31.7559 24.7282 31.7559 27.0186H35.7559ZM36.7002 20.9271C37.3948 18.6947 38.393 16.4427 39.7059 14.1705L36.2424 12.1694C34.7961 14.6725 33.672 17.1959 32.8808 19.7389L36.7002 20.9271ZM39.7059 14.1705C41.0054 11.9213 42.6123 9.75897 44.5347 7.68472L41.601 4.96567C39.4909 7.24233 37.702 9.64318 36.2424 12.1694L39.7059 14.1705ZM44.5347 7.68472C46.4351 5.63432 48.5878 3.83117 50.9976 2.27481L48.8275 -1.08535C46.1437 0.647995 43.7332 2.66516 41.601 4.96567L44.5347 7.68472ZM48.6501 2.14585L52.0724 4.9315L54.5975 1.82925L51.1751 -0.956397L48.6501 2.14585ZM51.9207 1.96616C50.6232 3.2637 49.508 4.73323 48.5741 6.36759L52.047 8.35214C52.811 7.01515 53.7121 5.83168 54.7492 4.79458L51.9207 1.96616ZM48.5622 6.38858C47.7245 7.89653 46.9966 9.43575 46.3797 11.006L50.1027 12.4686C50.6531 11.0675 51.3048 9.68843 52.0589 8.33115L48.5622 6.38858ZM46.3577 11.0646C45.7942 12.6426 45.367 14.2049 45.0808 15.7506L49.0139 16.4789C49.2583 15.1594 49.627 13.8034 50.1247 12.41L46.3577 11.0646ZM45.0834 15.7371C44.8 17.2105 44.6494 18.5867 44.6494 19.8555H48.6494C48.6494 18.8957 48.7641 17.7781 49.0114 16.4924L45.0834 15.7371ZM44.6494 19.8555C44.6494 22.6772 45.5084 25.2009 47.2504 27.33L50.3463 24.797C49.223 23.4241 48.6494 21.8091 48.6494 19.8555H44.6494ZM47.2698 27.3532C49.1908 29.63 52.0779 30.6505 55.4946 30.7683L55.6324 26.7707C52.8941 26.6763 51.2712 25.8928 50.3269 24.7737L47.2698 27.3532ZM53.6925 29.4763L55.0456 33.0579L58.7874 31.6443L57.4344 28.0627L53.6925 29.4763Z" fill="black" mask="url(#path-1-inside-1_2105_6190)"/>
</svg>
