<svg width="115" height="17" viewBox="0 0 115 17" fill="none" xmlns="http://www.w3.org/2000/svg">
<path d="M16.7377 7.09206C16.7168 7.28102 16.6227 7.45427 16.4756 7.57466L12.8239 11.1355L13.6888 16.165C13.6968 16.2318 13.7003 16.2992 13.6992 16.3665C13.7031 16.4937 13.6659 16.6188 13.5933 16.7233C13.5583 16.7713 13.5118 16.8098 13.458 16.8353C13.4043 16.8607 13.3451 16.8723 13.2857 16.869C13.1434 16.8646 13.0047 16.8228 12.8836 16.7479L8.36887 14.3746L3.85229 16.7488C3.73045 16.8221 3.59219 16.8638 3.45012 16.8699C3.38932 16.874 3.32847 16.8628 3.2731 16.8374C3.21773 16.8119 3.16961 16.773 3.13312 16.7242C3.06057 16.6197 3.02343 16.4946 3.02714 16.3675C3.02961 16.2999 3.03625 16.2326 3.04701 16.1659L3.91191 11.1364L0.251709 7.5756C0.111387 7.45071 0.0218137 7.27864 0 7.09206C0 6.84413 0.189255 6.68989 0.567766 6.62933L5.61804 5.89502L7.87586 1.31883C8.00329 1.04378 8.16763 0.90625 8.36887 0.90625C8.57011 0.90625 8.73444 1.04378 8.86188 1.31883L11.1254 5.89596L16.1756 6.63027C16.5542 6.69336 16.7434 6.8476 16.7434 7.093L16.7377 7.09206Z" fill="#111111"/>
<path d="M41.3022 7.09206C41.2813 7.28102 41.1872 7.45427 41.0401 7.57466L37.3884 11.1355L38.2533 16.165C38.2613 16.2318 38.2648 16.2992 38.2637 16.3665C38.2675 16.4937 38.2304 16.6188 38.1577 16.7233C38.1227 16.7713 38.0762 16.8098 38.0225 16.8353C37.9688 16.8607 37.9095 16.8723 37.8502 16.869C37.7078 16.8646 37.5691 16.8228 37.448 16.7479L32.9333 14.3746L28.4167 16.7488C28.2949 16.8221 28.1566 16.8638 28.0146 16.8699C27.9538 16.874 27.8929 16.8628 27.8376 16.8374C27.7822 16.8119 27.7341 16.773 27.6976 16.7242C27.625 16.6197 27.5879 16.4946 27.5916 16.3675C27.5941 16.2999 27.6007 16.2326 27.6115 16.1659L28.4764 11.1364L24.8162 7.5756C24.6758 7.45071 24.5863 7.27864 24.5645 7.09206C24.5645 6.84413 24.7537 6.68989 25.1322 6.62933L30.1825 5.89502L32.4403 1.31883C32.5677 1.04378 32.7321 0.90625 32.9333 0.90625C33.1346 0.90625 33.2989 1.04378 33.4263 1.31883L35.6898 5.89596L40.7401 6.63027C41.1186 6.69336 41.3079 6.8476 41.3079 7.093L41.3022 7.09206Z" fill="#111111"/>
<path d="M65.8666 7.09206C65.8458 7.28102 65.7517 7.45427 65.6045 7.57466L61.9528 11.1355L62.8177 16.165C62.8257 16.2318 62.8292 16.2992 62.8281 16.3665C62.832 16.4937 62.7948 16.6188 62.7222 16.7233C62.6872 16.7713 62.6407 16.8098 62.5869 16.8353C62.5332 16.8607 62.474 16.8723 62.4146 16.869C62.2723 16.8646 62.1336 16.8228 62.0125 16.7479L57.4978 14.3746L52.9812 16.7488C52.8594 16.8221 52.7211 16.8638 52.579 16.8699C52.5182 16.874 52.4574 16.8628 52.402 16.8374C52.3466 16.8119 52.2985 16.773 52.262 16.7242C52.1895 16.6197 52.1523 16.4946 52.156 16.3675C52.1585 16.2999 52.1652 16.2326 52.1759 16.1659L53.0408 11.1364L49.3806 7.5756C49.2403 7.45071 49.1507 7.27864 49.1289 7.09206C49.1289 6.84413 49.3182 6.68989 49.6967 6.62933L54.7469 5.89502L57.0048 1.31883C57.1322 1.04378 57.2965 0.90625 57.4978 0.90625C57.699 0.90625 57.8634 1.04378 57.9908 1.31883L60.2543 5.89596L65.3046 6.63027C65.6831 6.69336 65.8723 6.8476 65.8723 7.093L65.8666 7.09206Z" fill="#111111"/>
<path d="M90.4291 7.09206C90.4083 7.28102 90.3142 7.45427 90.167 7.57466L86.5153 11.1355L87.3802 16.165C87.3882 16.2318 87.3917 16.2992 87.3906 16.3665C87.3945 16.4937 87.3573 16.6188 87.2847 16.7233C87.2497 16.7713 87.2032 16.8098 87.1494 16.8353C87.0957 16.8607 87.0365 16.8723 86.9771 16.869C86.8348 16.8646 86.6961 16.8228 86.575 16.7479L82.0603 14.3746L77.5437 16.7488C77.4219 16.8221 77.2836 16.8638 77.1415 16.8699C77.0807 16.874 77.0199 16.8628 76.9645 16.8374C76.9091 16.8119 76.861 16.773 76.8245 16.7242C76.752 16.6197 76.7148 16.4946 76.7185 16.3675C76.721 16.2999 76.7277 16.2326 76.7384 16.1659L77.6033 11.1364L73.9431 7.5756C73.8028 7.45071 73.7132 7.27864 73.6914 7.09206C73.6914 6.84413 73.8807 6.68989 74.2592 6.62933L79.3094 5.89502L81.5673 1.31883C81.6947 1.04378 81.859 0.90625 82.0603 0.90625C82.2615 0.90625 82.4259 1.04378 82.5533 1.31883L84.8168 5.89596L89.8671 6.63027C90.2456 6.69336 90.4348 6.8476 90.4348 7.093L90.4291 7.09206Z" fill="#111111"/>
<path d="M114.994 7.09206C114.973 7.28102 114.879 7.45427 114.731 7.57466L111.08 11.1355L111.945 16.165C111.953 16.2318 111.956 16.2992 111.955 16.3665C111.959 16.4937 111.922 16.6188 111.849 16.7233C111.814 16.7713 111.768 16.8098 111.714 16.8353C111.66 16.8607 111.601 16.8723 111.542 16.869C111.399 16.8646 111.261 16.8228 111.139 16.7479L106.625 14.3746L102.108 16.7488C101.986 16.8221 101.848 16.8638 101.706 16.8699C101.645 16.874 101.584 16.8628 101.529 16.8374C101.474 16.8119 101.425 16.773 101.389 16.7242C101.316 16.6197 101.279 16.4946 101.283 16.3675C101.285 16.2999 101.292 16.2326 101.303 16.1659L102.168 11.1364L98.5076 7.5756C98.3672 7.45071 98.2777 7.27864 98.2559 7.09206C98.2559 6.84413 98.4451 6.68989 98.8236 6.62933L103.874 5.89502L106.132 1.31883C106.259 1.04378 106.423 0.90625 106.625 0.90625C106.826 0.90625 106.99 1.04378 107.118 1.31883L109.381 5.89596L114.432 6.63027C114.81 6.69336 114.999 6.8476 114.999 7.093L114.994 7.09206Z" fill="#111111"/>
</svg>
