<svg width="143" height="142" viewBox="0 0 143 142" fill="none" xmlns="http://www.w3.org/2000/svg">
<path d="M71.1301 141.74C61.8199 141.764 52.5974 139.941 43.9961 136.378C35.3949 132.815 27.5856 127.581 21.0201 120.98C14.4177 114.416 9.18318 106.606 5.61967 98.005C2.05617 89.4035 0.234441 80.1801 0.260055 70.8697C0.233336 61.5591 2.05452 52.3361 5.61809 43.7345C9.18165 35.1328 14.4168 27.3237 21.0201 20.7598C27.5839 14.1565 35.3929 8.92156 43.9946 5.35799C52.5962 1.79442 61.8195 -0.0266397 71.1301 8.00088e-05C80.4438 -0.0281825 89.6706 1.79197 98.2757 5.35555C106.881 8.91913 114.693 14.155 121.26 20.7598C127.861 27.3253 133.095 35.1346 136.658 43.7359C140.222 52.3372 142.044 61.5595 142.02 70.8697C142.043 80.1798 140.221 89.4023 136.657 98.0035C133.094 106.605 127.861 114.414 121.26 120.98C114.692 127.583 106.879 132.817 98.2745 136.381C89.6696 139.944 80.4435 141.766 71.1301 141.74ZM71.1301 1.38973C62.0019 1.36335 52.9593 3.14852 44.5259 6.64168C36.0926 10.1348 28.436 15.2667 22 21.7398C15.5269 28.1758 10.3951 35.8323 6.9019 44.2657C3.40874 52.6991 1.62369 61.7416 1.65007 70.8697C1.62369 79.9979 3.40874 89.0408 6.9019 97.4742C10.3951 105.908 15.5269 113.564 22 120C28.436 126.473 36.0926 131.605 44.5259 135.098C52.9593 138.591 62.0019 140.376 71.1301 140.35C80.2582 140.376 89.3009 138.591 97.7343 135.098C106.168 131.605 113.824 126.473 120.26 120C126.733 113.564 131.865 105.908 135.358 97.4742C138.851 89.0408 140.636 79.9979 140.61 70.8697C140.636 61.7416 138.851 52.6991 135.358 44.2657C131.865 35.8323 126.733 28.1758 120.26 21.7398C113.824 15.2667 106.168 10.1348 97.7343 6.64168C89.3009 3.14852 80.2582 1.36335 71.1301 1.38973Z" fill="black"/>
<path d="M65.349 67.4802H80.349L85.4291 76.2898L78.869 87.6501C79.359 87.7301 79.869 87.7999 80.359 87.8499L86.639 76.9802H96.7991L100.209 82.8801C100.589 82.6201 100.969 82.3501 101.339 82.0701L97.999 76.2898L103.079 67.4802H111.709C111.859 67.0302 111.989 66.5599 112.119 66.0999H103.119L98.0391 57.2898L105.509 44.3499C107.901 45.8264 110.044 47.6729 111.859 49.8201C111.51 48.6892 111.092 47.5807 110.609 46.5002C105.493 41.726 98.7565 39.0704 91.759 39.0701C84.4105 39.0806 77.3659 42.0047 72.1697 47.2009C66.9735 52.3971 64.0496 59.4412 64.0391 66.7898C64.0374 73.5999 66.5516 80.1707 71.099 85.24C72.1682 85.7427 73.2669 86.1802 74.389 86.55C71.6475 84.1675 69.429 81.2432 67.8732 77.9612C66.3173 74.6792 65.4579 71.1107 65.349 67.4802ZM101.829 66.7898L96.749 75.5901H86.589L81.499 66.7898L86.589 57.99H96.749L101.829 66.7898ZM91.6691 40.4602C96.0535 40.4563 100.369 41.5531 104.219 43.6501L96.749 56.5999H86.589L79.109 43.6501C82.963 41.5531 87.2815 40.4563 91.6691 40.4602ZM77.9091 44.3499L85.379 57.2898L80.2991 66.0999H65.2991C65.4225 61.7109 66.6406 57.4227 68.8428 53.6243C71.045 49.8258 74.1615 46.6376 77.9091 44.3499Z" fill="black"/>
<path d="M83.519 92.26C74.5765 92.2494 66.0034 88.6922 59.6801 82.3689C53.3567 76.0456 49.7996 67.4725 49.7891 58.53C49.7996 49.5875 53.3567 41.0145 59.6801 34.6912C66.0034 28.3679 74.5765 24.8106 83.519 24.8C92.4615 24.8106 101.035 28.3679 107.358 34.6912C113.681 41.0145 117.238 49.5875 117.249 58.53C117.238 67.4725 113.681 76.0456 107.358 82.3689C101.035 88.6922 92.4615 92.2494 83.519 92.26ZM83.519 26.1902C74.9435 26.1981 66.7212 29.6072 60.6564 35.6702C54.5916 41.7331 51.1797 49.9544 51.1691 58.53C51.1797 67.1056 54.5916 75.327 60.6564 81.3899C66.7212 87.4528 74.9435 90.8619 83.519 90.8699C92.0929 90.8593 100.312 87.4486 106.375 81.386C112.438 75.3234 115.848 67.1039 115.859 58.53C115.862 49.9475 112.457 41.7148 106.393 35.6414C100.329 29.5679 92.1016 26.1505 83.519 26.1399V26.1902Z" fill="black"/>
<path d="M57.4097 83.97L37.5996 103.78L38.5996 104.78L58.4197 84.9602C58.0597 84.6302 57.7297 84.26 57.4097 83.97Z" fill="black"/>
</svg>
