<svg width="142" height="142" viewBox="0 0 142 142" fill="none" xmlns="http://www.w3.org/2000/svg">
<path d="M60.5396 83.8899C54.6473 83.8945 48.9725 81.6648 44.6595 77.6501C43.25 76.3555 41.4034 75.6411 39.4895 75.6501H31.7595C31.6219 75.6489 31.487 75.6116 31.3682 75.5422C31.2493 75.4729 31.1507 75.3739 31.082 75.2546C31.0133 75.1354 30.977 75.0001 30.9766 74.8625C30.9761 74.725 31.0115 74.5896 31.0795 74.47L36.1995 65.5901C36.9104 64.3405 37.2569 62.9168 37.1995 61.4802C37.1995 61.1302 37.1995 60.8301 37.1995 60.5701C37.2048 54.3806 39.6652 48.4461 44.0409 44.0686C48.4166 39.6911 54.3501 37.2279 60.5396 37.22H60.8695C66.944 37.301 72.7437 39.7644 77.0195 44.0798C81.3335 48.3526 83.797 54.1487 83.8795 60.22C83.9329 63.3145 83.3657 66.3883 82.2116 69.26C81.0574 72.1317 79.3396 74.7433 77.1595 76.9402C74.9943 79.1505 72.408 80.9042 69.5533 82.0979C66.6987 83.2916 63.6337 83.9009 60.5396 83.8899ZM32.7996 74.24H39.4895C41.764 74.2399 43.9541 75.1011 45.6195 76.6501C49.6751 80.4151 55.0057 82.5053 60.5396 82.5002C63.4495 82.509 66.3318 81.9345 69.0162 80.8113C71.7007 79.688 74.133 78.0388 76.1696 75.9602C78.2214 73.8942 79.8379 71.4375 80.9235 68.7356C82.009 66.0337 82.5416 63.1416 82.4895 60.2302C82.4094 54.521 80.0937 49.0707 76.0396 45.05C72.0193 40.994 66.5697 38.6749 60.8595 38.5901H60.5396C54.7048 38.5901 49.109 40.9076 44.9832 45.0334C40.8574 49.1592 38.5396 54.7553 38.5396 60.5901C38.5396 60.8301 38.5396 61.12 38.5396 61.45C38.6042 63.1518 38.1845 64.8369 37.3295 66.3098L32.7996 74.24Z" fill="black"/>
<path d="M105.53 86.26C104.819 85.0141 104.473 83.5933 104.53 82.1599C104.53 81.7999 104.53 81.5002 104.53 81.2302C104.52 75.9735 102.738 70.8736 99.472 66.7546C96.2059 62.6357 91.6464 59.7379 86.5303 58.53C86.5303 59 86.5902 59.53 86.6102 59.97C91.3239 61.1894 95.5001 63.9381 98.4841 67.7854C101.468 71.6327 103.092 76.3613 103.1 81.2302C103.1 81.4802 103.1 81.7699 103.1 82.0999C103.038 83.7983 103.457 85.48 104.31 86.95L108.91 94.95H102.26C99.9872 94.9471 97.7972 95.8044 96.1302 97.3499C92.0783 101.122 86.7461 103.217 81.2102 103.21C78.3002 103.219 75.418 102.644 72.7335 101.521C70.0491 100.398 67.6168 98.7487 65.5802 96.6702C62.8397 93.9012 60.8921 90.4479 59.9403 86.6702C59.4503 86.6702 58.9402 86.6701 58.4902 86.5901C59.4699 90.7493 61.5811 94.5564 64.5902 97.5901C66.7512 99.8095 69.3357 101.573 72.1906 102.775C75.0454 103.978 78.1125 104.595 81.2102 104.59C87.1025 104.595 92.7773 102.365 97.0902 98.3499C98.4997 97.0552 100.346 96.3409 102.26 96.3499H109.99C110.129 96.3517 110.266 96.3164 110.386 96.2478C110.507 96.1792 110.607 96.08 110.677 95.9597C110.746 95.8395 110.782 95.7025 110.781 95.5637C110.78 95.4249 110.741 95.2893 110.67 95.1702L105.53 86.26Z" fill="black"/>
<path d="M70.8703 141.74C61.5601 141.764 52.3376 139.941 43.7364 136.378C35.1351 132.815 27.3258 127.581 20.7603 120.98C14.1579 114.416 8.92341 106.606 5.35991 98.0049C1.79641 89.4034 -0.0253246 80.1801 0.000289805 70.8697C-0.0264299 61.5591 1.79475 52.3361 5.35832 43.7344C8.92189 35.1328 14.157 27.3236 20.7603 20.7598C27.3241 14.1565 35.1331 8.92152 43.7348 5.35796C52.3364 1.79439 61.5597 -0.0266741 70.8703 4.56837e-05C80.1805 -0.0244642 89.4032 1.79745 98.0046 5.36089C106.606 8.92433 114.415 14.1583 120.98 20.7598C127.58 27.3258 132.812 35.1356 136.374 43.7369C139.936 52.3382 141.756 61.5601 141.73 70.8697C141.756 80.1791 139.935 89.4013 136.373 98.0025C132.811 106.604 127.58 114.414 120.98 120.98C114.414 127.58 106.604 132.812 98.0033 136.376C89.4023 139.939 80.1802 141.762 70.8703 141.74ZM70.8703 1.38969C61.7421 1.36332 52.6995 3.14848 44.2662 6.64165C35.8328 10.1348 28.1763 15.2666 21.7403 21.7398C15.2671 28.1758 10.1353 35.8323 6.64214 44.2657C3.14897 52.699 1.36393 61.7415 1.3903 70.8697C1.36393 79.9978 3.14897 89.0408 6.64214 97.4742C10.1353 105.908 15.2671 113.564 21.7403 120C28.1763 126.473 35.8328 131.605 44.2662 135.098C52.6995 138.591 61.7421 140.376 70.8703 140.35C79.9968 140.375 89.0376 138.589 97.4692 135.096C105.901 131.603 113.555 126.472 119.99 120C126.463 113.564 131.595 105.908 135.088 97.4742C138.582 89.0408 140.367 79.9978 140.34 70.8697C140.367 61.7415 138.582 52.699 135.088 44.2657C131.595 35.8323 126.463 28.1758 119.99 21.7398C113.555 15.2678 105.901 10.1367 97.4692 6.6436C89.0376 3.15048 79.9968 1.36464 70.8703 1.38969Z" fill="black"/>
</svg>
