<svg width="143" height="142" viewBox="0 0 143 142" fill="none" xmlns="http://www.w3.org/2000/svg">
<path d="M71.6593 141.74C62.3492 141.764 53.1266 139.941 44.5254 136.378C35.9241 132.815 28.1148 127.581 21.5493 120.98C14.9469 114.416 9.71241 106.606 6.14891 98.0049C2.58541 89.4034 0.763738 80.1801 0.789352 70.8697C0.762633 61.5591 2.58382 52.3361 6.14738 43.7344C9.71095 35.1328 14.946 27.3236 21.5493 20.7598C28.1131 14.1565 35.9221 8.92152 44.5238 5.35796C53.1254 1.79439 62.3488 -0.0266741 71.6593 4.56837e-05C80.9698 -0.0255688 90.1927 1.79592 98.7942 5.35942C107.396 8.92292 115.205 14.1574 121.769 20.7598C128.369 27.3258 133.601 35.1356 137.163 43.7369C140.725 52.3382 142.545 61.5601 142.519 70.8697C142.545 80.1791 140.724 89.4013 137.162 98.0025C133.6 106.604 128.369 114.414 121.769 120.98C115.204 127.581 107.394 132.814 98.793 136.377C90.1918 139.94 80.9694 141.763 71.6593 141.74ZM71.6593 1.38969C62.5312 1.36332 53.4885 3.14848 45.0552 6.64165C36.6218 10.1348 28.9653 15.2666 22.5293 21.7398C16.0562 28.1758 10.9244 35.8323 7.4312 44.2657C3.93804 52.699 2.15293 61.7415 2.17931 70.8697C2.15293 79.9978 3.93804 89.0408 7.4312 97.4742C10.9244 105.908 16.0562 113.564 22.5293 120C28.9653 126.473 36.6218 131.605 45.0552 135.098C53.4885 138.591 62.5312 140.376 71.6593 140.35C80.7875 140.376 89.8302 138.591 98.2635 135.098C106.697 131.605 114.353 126.473 120.789 120C127.263 113.564 132.394 105.908 135.887 97.4742C139.381 89.0408 141.166 79.9978 141.139 70.8697C141.166 61.7415 139.381 52.699 135.887 44.2657C132.394 35.8323 127.263 28.1758 120.789 21.7398C114.353 15.2666 106.697 10.1348 98.2635 6.64165C89.8302 3.14848 80.7875 1.36332 71.6593 1.38969Z" fill="black"/>
<path d="M70.9098 62.4802C68.3353 62.4848 65.7907 63.0321 63.4421 64.0867C61.0935 65.1412 58.9938 66.6789 57.2798 68.5999L61.7798 39.5999H86.0098V38.26H60.5998L55.3798 71.78H56.5497L56.7598 71.4802C58.3231 69.1596 60.4289 67.255 62.8947 65.9324C65.3605 64.6097 68.1117 63.9086 70.9098 63.8899C80.6998 63.8899 88.6498 72.46 88.6498 83.01C88.6498 93.56 80.6998 102.13 70.9098 102.13C67.4194 102.067 64.0254 100.973 61.154 98.988C58.2826 97.0026 56.0616 94.2132 54.7698 90.97H53.2598C54.5884 94.5988 56.9849 97.74 60.1337 99.9802C63.2825 102.22 67.036 103.454 70.8998 103.52C81.4498 103.52 90.0298 94.32 90.0298 83.01C90.0298 71.7 81.4598 62.4802 70.9098 62.4802Z" fill="black"/>
</svg>
