<svg width="36" height="19" viewBox="0 0 36 19" fill="none" xmlns="http://www.w3.org/2000/svg">
<path d="M6.2 7.36562C8.7 7.36562 10.5333 7.84062 11.7 8.79062C12.8833 9.72396 13.475 11.0073 13.475 12.6406C13.475 13.674 13.225 14.6073 12.725 15.4406C12.2417 16.2573 11.5 16.9073 10.5 17.3906C9.51667 17.8573 8.3 18.0906 6.85 18.0906C5.61667 18.0906 4.425 17.9073 3.275 17.5406C2.125 17.1573 1.175 16.6323 0.425 15.9656L1.575 13.9906C2.175 14.5573 2.94167 15.0156 3.875 15.3656C4.80833 15.699 5.79167 15.8656 6.825 15.8656C8.14167 15.8656 9.15833 15.5906 9.875 15.0406C10.6083 14.474 10.975 13.7073 10.975 12.7406C10.975 11.6906 10.575 10.899 9.775 10.3656C8.975 9.81562 7.60833 9.54062 5.675 9.54062H1.7L2.625 0.390624H12.5V2.56562H4.725L4.25 7.36562H6.2ZM17.2055 18.0406C16.7388 18.0406 16.3388 17.8823 16.0055 17.5656C15.6721 17.2323 15.5055 16.8156 15.5055 16.3156C15.5055 15.8323 15.6721 15.4323 16.0055 15.1156C16.3388 14.7823 16.7388 14.6156 17.2055 14.6156C17.6721 14.6156 18.0638 14.774 18.3805 15.0906C18.6971 15.4073 18.8555 15.8156 18.8555 16.3156C18.8555 16.8156 18.6888 17.2323 18.3555 17.5656C18.0388 17.8823 17.6555 18.0406 17.2055 18.0406ZM28.0766 18.0906C26.6932 18.0906 25.4599 17.7406 24.3766 17.0406C23.3099 16.324 22.4682 15.2906 21.8516 13.9406C21.2349 12.5906 20.9266 10.9906 20.9266 9.14062C20.9266 7.29062 21.2349 5.69062 21.8516 4.34062C22.4682 2.99062 23.3099 1.96562 24.3766 1.26562C25.4599 0.548958 26.6932 0.190625 28.0766 0.190625C29.4432 0.190625 30.6599 0.548958 31.7266 1.26562C32.8099 1.96562 33.6599 2.99062 34.2766 4.34062C34.8932 5.69062 35.2016 7.29062 35.2016 9.14062C35.2016 10.9906 34.8932 12.5906 34.2766 13.9406C33.6599 15.2906 32.8099 16.324 31.7266 17.0406C30.6599 17.7406 29.4432 18.0906 28.0766 18.0906ZM28.0766 15.8656C29.4766 15.8656 30.5932 15.2906 31.4266 14.1406C32.2766 12.9906 32.7016 11.324 32.7016 9.14062C32.7016 6.95729 32.2766 5.29062 31.4266 4.14062C30.5932 2.99062 29.4766 2.41562 28.0766 2.41562C26.6599 2.41562 25.5266 2.99062 24.6766 4.14062C23.8432 5.29062 23.4266 6.95729 23.4266 9.14062C23.4266 11.324 23.8432 12.9906 24.6766 14.1406C25.5266 15.2906 26.6599 15.8656 28.0766 15.8656Z" fill="black"/>
</svg>
