<svg width="92" height="12" viewBox="0 0 92 12" fill="none" xmlns="http://www.w3.org/2000/svg">
<path d="M0.25 10.7674H1.8548V1.04365H0.25V0.845198H2.77907C2.92421 0.845198 3.07027 0.842933 3.22047 0.838402C3.3693 0.832965 3.52181 0.826619 3.67524 0.816198C3.82913 0.816198 3.9798 0.813934 4.12401 0.808496C4.26869 0.803966 4.4083 0.801701 4.54376 0.801701C5.24641 0.801701 5.82465 0.885071 6.27803 1.05C6.73095 1.21673 7.08757 1.42017 7.3479 1.66212C7.60823 1.90407 7.78654 2.16414 7.88237 2.44506C7.97867 2.7237 8.02659 2.97789 8.02659 3.20443C8.02659 3.51707 7.95747 3.80614 7.81741 4.07255C7.6778 4.33806 7.48981 4.57004 7.25391 4.76759C7.01708 4.96786 6.74523 5.12825 6.43699 5.25104C6.12828 5.37518 5.80484 5.45538 5.46803 5.49299V5.52153C5.81497 5.55098 6.16883 5.62393 6.53052 5.74219C6.89129 5.8609 7.21935 6.02582 7.51377 6.24013C7.80727 6.45354 8.04548 6.71633 8.22886 7.02896C8.41178 7.34069 8.50301 7.70044 8.50301 8.10913C8.50301 8.53458 8.42191 8.92695 8.25835 9.28172C8.09386 9.63785 7.84781 9.94323 7.52068 10.1992C7.19308 10.4543 6.77749 10.6564 6.27711 10.8023C5.77673 10.9495 5.19296 11.0229 4.52855 11.0229C4.39309 11.0229 4.25993 11.0207 4.13046 11.0152C3.99961 11.0107 3.86276 11.0044 3.71855 10.9944C3.57387 10.9844 3.42413 10.9781 3.26978 10.9736C3.11634 10.9677 2.95139 10.9654 2.77815 10.9654H0.25V10.7674ZM3.29972 5.43681H4.62992C4.89992 5.43681 5.14596 5.40373 5.36666 5.33667C5.58874 5.27052 5.77904 5.15453 5.938 4.98915C6.09696 4.82242 6.21997 4.59814 6.30706 4.3136C6.39414 4.02906 6.43699 3.6684 6.43699 3.23298C6.43699 2.74092 6.37156 2.34402 6.24209 2.04543C6.11124 1.74775 5.9426 1.52257 5.73618 1.36987C5.52884 1.21945 5.29755 1.11932 5.04137 1.0722C4.78657 1.02507 4.53362 1.00061 4.28297 1.00061C4.10927 1.00061 3.9328 1.00423 3.75449 1.00876C3.57617 1.01329 3.42505 1.02508 3.29972 1.04365V5.43681ZM3.29972 10.7674C3.41583 10.7769 3.543 10.7882 3.68261 10.8023C3.82222 10.8168 4.02264 10.8245 4.28297 10.8245C4.73497 10.8245 5.12339 10.7814 5.44637 10.6958C5.76982 10.6106 6.03475 10.4616 6.24209 10.2491C6.44897 10.0357 6.6001 9.75339 6.69732 9.40315C6.79315 9.05246 6.84153 8.6116 6.84153 8.08103C6.84153 7.32166 6.67796 6.72494 6.34991 6.28997C6.02323 5.85365 5.53576 5.63526 4.89024 5.63526H3.29972V10.7674Z" fill="black"/>
<path d="M9.21533 0.844749H13.8708V1.0432H12.266V7.90886C12.266 8.4793 12.3162 8.95957 12.418 9.35331C12.5189 9.74659 12.671 10.0628 12.8728 10.3048C13.0755 10.5467 13.3257 10.7203 13.6247 10.8245C13.9238 10.9287 14.2656 10.9808 14.6513 10.9808C15.1908 10.9808 15.6682 10.9024 16.0819 10.7466C16.4971 10.5902 16.8528 10.3125 17.1518 9.91468C17.2481 9.7919 17.3329 9.66821 17.4052 9.54542C17.478 9.42173 17.5398 9.27719 17.5932 9.11136C17.6453 8.94553 17.6867 8.74662 17.7158 8.51509C17.7453 8.2813 17.7586 7.99631 17.7586 7.65422V1.04366H16.1538V0.845202H19.5804V1.04366H17.9761V7.93786C17.9761 8.33658 17.9323 8.69859 17.8457 9.02572C17.7586 9.35331 17.5803 9.69267 17.3108 10.0429C17.0504 10.3827 16.6897 10.6582 16.2271 10.8657C15.764 11.0746 15.1517 11.1788 14.3905 11.1788C13.2345 11.1788 12.3498 10.8997 11.738 10.3401C11.1256 9.78102 10.8206 8.92378 10.8206 7.76659V1.04275H9.21487L9.21533 0.844749Z" fill="black"/>
<path d="M20.7862 10.7674H22.3906V1.04365H20.7862V0.845198H23.4752C23.6093 0.845198 23.7443 0.842933 23.8788 0.838402C24.0138 0.832965 24.1493 0.826619 24.2833 0.816198C24.4183 0.816198 24.5538 0.813934 24.6883 0.808496C24.8233 0.803966 24.9588 0.801701 25.0924 0.801701C25.3827 0.801701 25.6402 0.807137 25.8669 0.815745C26.0932 0.825713 26.3056 0.842478 26.5028 0.866038C26.7 0.889146 26.8884 0.922223 27.0663 0.965266C27.2446 1.00831 27.4344 1.06313 27.6376 1.12747C28.2251 1.31777 28.7342 1.5715 29.1632 1.88912C29.5917 2.20673 29.9437 2.57418 30.2183 2.99148C30.4929 3.40787 30.6956 3.86322 30.8251 4.35664C30.956 4.84869 31.0205 5.36567 31.0205 5.90575C31.0205 6.53101 30.9431 7.09239 30.7896 7.58943C30.6353 8.08737 30.4229 8.52868 30.1538 8.91245C29.8833 9.29576 29.5677 9.62788 29.2065 9.90653C28.8452 10.187 28.4573 10.4122 28.0431 10.5825C27.8118 10.6867 27.592 10.7669 27.3851 10.824C27.1778 10.8811 26.9658 10.9242 26.7493 10.9513C26.5327 10.9799 26.2941 10.9985 26.0337 11.0084C25.7734 11.0184 25.4744 11.0225 25.1376 11.0225C24.9934 11.0225 24.8385 11.0202 24.675 11.0148C24.5109 11.0103 24.3469 11.0039 24.1833 10.9939C24.0193 10.984 23.8581 10.9776 23.6996 10.9731C23.5401 10.9672 23.389 10.9649 23.2434 10.9649H20.7862V10.7674ZM23.8364 10.7674C24 10.7869 24.1912 10.8014 24.4073 10.8104C24.6243 10.82 24.8625 10.8245 25.1228 10.8245C25.4509 10.8245 25.7748 10.8082 26.0987 10.7742C26.4217 10.7425 26.7304 10.67 27.0239 10.5608C27.3179 10.452 27.5925 10.2957 27.8482 10.0927C28.1039 9.8884 28.3324 9.62017 28.5352 9.28851C28.8429 8.77743 29.0577 8.25366 29.1784 7.71811C29.2991 7.18301 29.3594 6.59716 29.3594 5.96239C29.3594 5.21433 29.2862 4.53379 29.142 3.92303C28.9973 3.31181 28.7586 2.78986 28.4264 2.35942C28.0938 1.92763 27.6533 1.5937 27.1045 1.35628C26.5539 1.12022 25.8752 1.00106 25.0657 1.00106C24.8247 1.00106 24.6049 1.00559 24.4077 1.01556C24.2105 1.02507 24.0193 1.03504 23.8369 1.0441L23.8364 10.7674Z" fill="black"/>
<path d="M32.0995 10.7674H33.7039V1.04365H32.0995V0.845198H34.8461C34.9622 0.845198 35.0774 0.842933 35.1935 0.838402C35.3091 0.832965 35.4239 0.826619 35.5405 0.816198C35.6556 0.816198 35.7717 0.813934 35.8865 0.808496C36.0026 0.803966 36.1182 0.801701 36.2334 0.801701C36.802 0.801701 37.3037 0.832512 37.7369 0.893679C38.1709 0.955299 38.5754 1.13336 38.9509 1.42787C39.2882 1.68296 39.5269 1.97203 39.6665 2.29508C39.8061 2.61677 39.8766 2.92035 39.8766 3.20398C39.8766 3.34625 39.8503 3.5302 39.7973 3.75086C39.7444 3.97378 39.6282 4.20168 39.4499 4.43457C39.2716 4.66655 39.0141 4.88041 38.6773 5.07388C38.3395 5.26871 37.8912 5.39829 37.3319 5.46489V5.49299C37.4867 5.51247 37.6959 5.54781 37.9617 5.60037C38.2266 5.65202 38.4962 5.73992 38.7712 5.8618C39.0459 5.98549 39.2988 6.14951 39.5296 6.35295C39.7605 6.55638 39.9254 6.81963 40.0213 7.14178C40.0789 7.33207 40.1194 7.54729 40.1443 7.78924C40.1683 8.03074 40.1871 8.27903 40.2019 8.53457C40.2171 8.79147 40.2305 9.0375 40.2447 9.27401C40.2595 9.51098 40.2862 9.71124 40.3244 9.87164C40.3825 10.1177 40.4742 10.3406 40.5995 10.5399C40.7244 10.7384 40.9262 10.8385 41.2063 10.8385C41.3312 10.8385 41.462 10.8141 41.5975 10.7674C41.7316 10.7203 41.8523 10.6446 41.9583 10.5399L42.0877 10.6958C42.0403 10.7343 41.9845 10.7742 41.9223 10.8172C41.8592 10.8598 41.78 10.9006 41.6832 10.9382C41.5874 10.9754 41.4694 11.0071 41.3293 11.0302C41.1893 11.0547 41.0183 11.0664 40.8151 11.0664C40.43 11.0664 40.1093 11.0193 39.8545 10.9246C39.5997 10.829 39.3942 10.689 39.2403 10.5046C39.0855 10.3188 38.9726 10.0927 38.8998 9.82134C38.8279 9.55176 38.7777 9.23641 38.7482 8.8762L38.6464 7.58309C38.6081 7.10961 38.5114 6.73943 38.3584 6.47347C38.2036 6.20977 38.0225 6.01494 37.8152 5.89216C37.6083 5.76937 37.3941 5.69506 37.172 5.6715C36.9508 5.64839 36.7578 5.63525 36.5942 5.63525H35.1488V10.7678H36.7532V10.9663H32.0995V10.7674ZM35.1507 5.4368H36.4799C36.7499 5.4368 36.996 5.40373 37.2176 5.33667C37.4388 5.27052 37.63 5.15453 37.7889 4.98915C37.9479 4.82242 38.0704 4.59813 38.1571 4.31359C38.2441 4.02905 38.2879 3.66839 38.2879 3.23298C38.2879 2.74092 38.2225 2.34402 38.0926 2.04543C37.9631 1.74775 37.7944 1.52256 37.5862 1.36987C37.3788 1.21945 37.1476 1.11932 36.8928 1.0722C36.637 1.02507 36.3836 1.00061 36.1334 1.00061C35.9597 1.00061 35.7842 1.00423 35.6059 1.00876C35.4276 1.01329 35.2751 1.02507 35.1511 1.04365L35.1507 5.4368Z" fill="black"/>
<path d="M43.1604 10.7674H44.7647V1.04365H43.1604V0.8452H51.4291V3.30411H51.2701C51.1452 2.9353 51.0102 2.60998 50.866 2.33088C50.7218 2.05087 50.5485 1.81436 50.3458 1.62043C50.1426 1.42561 49.9012 1.28198 49.6238 1.18728C49.3437 1.09168 49.0055 1.04456 48.6111 1.04456H46.2115V5.43771H47.1514C47.4689 5.43771 47.7398 5.40916 47.961 5.35208C48.1821 5.29635 48.3724 5.18851 48.5314 5.03219C48.6899 4.87633 48.8253 4.66338 48.9368 4.39289C49.0465 4.12239 49.1562 3.77442 49.2621 3.34761H49.4211V7.7684H49.2621C49.1949 7.49383 49.1253 7.22923 49.052 6.97187C48.9806 6.71678 48.8783 6.48933 48.7489 6.29042C48.6185 6.09152 48.4457 5.93203 48.2282 5.81332C48.0121 5.69552 47.7292 5.63526 47.3832 5.63526H46.2119V10.7679H48.9442C49.4741 10.7679 49.9146 10.6568 50.2675 10.4339C50.6195 10.211 50.9056 9.94595 51.1259 9.6383C51.3489 9.32929 51.5115 9.00941 51.6175 8.67775C51.7235 8.34745 51.7912 8.07152 51.8202 7.85494H51.9797V10.9668H43.1608L43.1604 10.7674Z" fill="black"/>
<path d="M52.7298 0.844749H57.1981V1.0432H55.5938L58.8034 9.28761L61.9683 1.0432H60.3935V0.844749H63.5141V1.0432H62.2153L58.3261 11.1788H57.9644L54.0314 1.0432H52.7298V0.844749Z" fill="black"/>
<path d="M64.5195 10.7674H66.1238V1.04365H64.5195V0.8452H69.1745V1.04365H67.5701V10.7674H69.1745V10.9658H64.5195V10.7674Z" fill="black"/>
<path d="M79.3516 10.9658H79.1341C79.0669 10.8911 78.9899 10.8222 78.9042 10.7606C78.8157 10.699 78.6807 10.6682 78.4978 10.6682C78.3536 10.6682 78.1965 10.6935 78.0283 10.7466C77.8601 10.7978 77.668 10.8571 77.4505 10.9246C77.2331 10.9894 76.9902 11.0488 76.7198 11.1018C76.4507 11.153 76.1512 11.1797 75.8241 11.1797C75.2177 11.1797 74.6266 11.071 74.0529 10.8521C73.4793 10.6346 72.9365 10.2794 72.4265 9.78601C71.9556 9.3225 71.5584 8.77199 71.2405 8.13767C70.923 7.50289 70.7636 6.76889 70.7636 5.93475C70.7636 5.22385 70.8954 4.54603 71.1548 3.90084C71.4147 3.257 71.7768 2.68746 72.239 2.19541C72.7015 1.7029 73.2462 1.31188 73.8728 1.02281C74.4994 0.733741 75.1836 0.588753 75.9254 0.588753C76.2245 0.588753 76.4903 0.617299 76.7207 0.674388C76.9525 0.730118 77.1593 0.795361 77.3436 0.866496C77.5261 0.936725 77.6947 1.00061 77.8482 1.0577C78.0039 1.11524 78.1532 1.14333 78.2983 1.14333C78.49 1.14333 78.6268 1.11298 78.7098 1.05C78.7918 0.989739 78.8669 0.920415 78.9342 0.844749H79.1498V3.68698H78.9908C78.9051 3.32768 78.7932 2.972 78.6582 2.62222C78.5227 2.27062 78.3366 1.96071 78.0947 1.69021C77.8541 1.41972 77.5482 1.20224 77.1773 1.0364C76.8064 0.870574 76.3456 0.788113 75.7964 0.788113C75.2864 0.788113 74.8473 0.866043 74.4801 1.02236C74.1147 1.17867 73.8055 1.38755 73.5553 1.64762C73.3051 1.90815 73.1042 2.21126 72.9559 2.55742C72.8061 2.90404 72.6928 3.26832 72.6163 3.65299C72.5398 4.03676 72.4887 4.4246 72.4643 4.81788C72.4408 5.21117 72.4279 5.58361 72.4279 5.9343C72.4279 6.92837 72.5103 7.753 72.6748 8.40635C72.8379 9.06152 73.066 9.57804 73.36 9.95682C73.6544 10.3361 74.0082 10.6011 74.4238 10.7529C74.8367 10.9056 75.2956 10.9804 75.7964 10.9804C76.4406 10.9804 76.9617 10.8911 77.357 10.7099C77.7533 10.5304 78.0716 10.2953 78.3126 10.0062C78.5522 9.71714 78.737 9.39137 78.8604 9.02527C78.9867 8.66008 79.0964 8.29806 79.1931 7.9374H79.3525L79.3516 10.9658Z" fill="black"/>
<path d="M80.8357 10.7674H82.44V1.04365H80.8357V0.8452H85.4907V1.04365H83.8863V5.6928H88.6998V1.04365H87.0955V0.8452H91.75V1.04365H90.1457V10.7674H91.75V10.9658H87.0955V10.7674H88.6998V5.8917H83.8859V10.7674H85.4902V10.9658H80.8357V10.7674Z" fill="black"/>
<path d="M0.25 10.7674H1.8548V1.04365H0.25V0.845198H2.77907C2.92421 0.845198 3.07027 0.842933 3.22047 0.838402C3.3693 0.832965 3.52181 0.826619 3.67524 0.816198C3.82913 0.816198 3.9798 0.813934 4.12401 0.808496C4.26869 0.803966 4.4083 0.801701 4.54376 0.801701C5.24641 0.801701 5.82465 0.885071 6.27803 1.05C6.73095 1.21673 7.08757 1.42017 7.3479 1.66212C7.60823 1.90407 7.78654 2.16414 7.88237 2.44506C7.97867 2.7237 8.02659 2.97789 8.02659 3.20443C8.02659 3.51707 7.95747 3.80614 7.81741 4.07255C7.6778 4.33806 7.48981 4.57004 7.25391 4.76759C7.01708 4.96786 6.74523 5.12825 6.43699 5.25104C6.12828 5.37518 5.80484 5.45538 5.46803 5.49299V5.52153C5.81497 5.55098 6.16883 5.62393 6.53052 5.74219C6.89129 5.8609 7.21935 6.02582 7.51377 6.24013C7.80727 6.45354 8.04548 6.71633 8.22886 7.02896C8.41178 7.34069 8.50301 7.70044 8.50301 8.10913C8.50301 8.53458 8.42191 8.92695 8.25835 9.28172C8.09386 9.63785 7.84781 9.94323 7.52068 10.1992C7.19308 10.4543 6.77749 10.6564 6.27711 10.8023C5.77673 10.9495 5.19296 11.0229 4.52855 11.0229C4.39309 11.0229 4.25993 11.0207 4.13046 11.0152C3.99961 11.0107 3.86276 11.0044 3.71855 10.9944C3.57387 10.9844 3.42413 10.9781 3.26978 10.9736C3.11634 10.9677 2.95139 10.9654 2.77815 10.9654H0.25V10.7674ZM3.29972 5.43681H4.62992C4.89992 5.43681 5.14596 5.40373 5.36666 5.33667C5.58874 5.27052 5.77904 5.15453 5.938 4.98915C6.09696 4.82242 6.21997 4.59814 6.30706 4.3136C6.39414 4.02906 6.43699 3.6684 6.43699 3.23298C6.43699 2.74092 6.37156 2.34402 6.24209 2.04543C6.11124 1.74775 5.9426 1.52257 5.73618 1.36987C5.52884 1.21945 5.29755 1.11932 5.04137 1.0722C4.78657 1.02507 4.53362 1.00061 4.28297 1.00061C4.10927 1.00061 3.9328 1.00423 3.75449 1.00876C3.57617 1.01329 3.42505 1.02508 3.29972 1.04365V5.43681ZM3.29972 10.7674C3.41583 10.7769 3.543 10.7882 3.68261 10.8023C3.82222 10.8168 4.02264 10.8245 4.28297 10.8245C4.73497 10.8245 5.12339 10.7814 5.44637 10.6958C5.76982 10.6106 6.03475 10.4616 6.24209 10.2491C6.44897 10.0357 6.6001 9.75339 6.69732 9.40315C6.79315 9.05246 6.84153 8.6116 6.84153 8.08103C6.84153 7.32166 6.67796 6.72494 6.34991 6.28997C6.02323 5.85365 5.53576 5.63526 4.89024 5.63526H3.29972V10.7674Z" stroke="black" stroke-width="0.2835" stroke-miterlimit="10"/>
<path d="M9.21533 0.844749H13.8708V1.0432H12.266V7.90886C12.266 8.4793 12.3162 8.95957 12.418 9.35331C12.5189 9.74659 12.671 10.0628 12.8728 10.3048C13.0755 10.5467 13.3257 10.7203 13.6247 10.8245C13.9238 10.9287 14.2656 10.9808 14.6513 10.9808C15.1908 10.9808 15.6682 10.9024 16.0819 10.7466C16.4971 10.5902 16.8528 10.3125 17.1518 9.91468C17.2481 9.7919 17.3329 9.66821 17.4052 9.54542C17.478 9.42173 17.5398 9.27719 17.5932 9.11136C17.6453 8.94553 17.6867 8.74662 17.7158 8.51509C17.7453 8.2813 17.7586 7.99631 17.7586 7.65422V1.04366H16.1538V0.845202H19.5804V1.04366H17.9761V7.93786C17.9761 8.33658 17.9323 8.69859 17.8457 9.02572C17.7586 9.35331 17.5803 9.69267 17.3108 10.0429C17.0504 10.3827 16.6897 10.6582 16.2271 10.8657C15.764 11.0746 15.1517 11.1788 14.3905 11.1788C13.2345 11.1788 12.3498 10.8997 11.738 10.3401C11.1256 9.78102 10.8206 8.92378 10.8206 7.76659V1.04275H9.21487L9.21533 0.844749Z" stroke="black" stroke-width="0.2835" stroke-miterlimit="10"/>
<path d="M20.7862 10.7674H22.3906V1.04365H20.7862V0.845198H23.4752C23.6093 0.845198 23.7443 0.842933 23.8788 0.838402C24.0138 0.832965 24.1493 0.826619 24.2833 0.816198C24.4183 0.816198 24.5538 0.813934 24.6883 0.808496C24.8233 0.803966 24.9588 0.801701 25.0924 0.801701C25.3827 0.801701 25.6402 0.807137 25.8669 0.815745C26.0932 0.825713 26.3056 0.842478 26.5028 0.866038C26.7 0.889146 26.8884 0.922223 27.0663 0.965266C27.2446 1.00831 27.4344 1.06313 27.6376 1.12747C28.2251 1.31777 28.7342 1.5715 29.1632 1.88912C29.5917 2.20673 29.9437 2.57418 30.2183 2.99148C30.4929 3.40787 30.6956 3.86322 30.8251 4.35664C30.956 4.84869 31.0205 5.36567 31.0205 5.90575C31.0205 6.53101 30.9431 7.09239 30.7896 7.58943C30.6353 8.08737 30.4229 8.52868 30.1538 8.91245C29.8833 9.29576 29.5677 9.62788 29.2065 9.90653C28.8452 10.187 28.4573 10.4122 28.0431 10.5825C27.8118 10.6867 27.592 10.7669 27.3851 10.824C27.1778 10.8811 26.9658 10.9242 26.7493 10.9513C26.5327 10.9799 26.2941 10.9985 26.0337 11.0084C25.7734 11.0184 25.4744 11.0225 25.1376 11.0225C24.9934 11.0225 24.8385 11.0202 24.675 11.0148C24.5109 11.0103 24.3469 11.0039 24.1833 10.9939C24.0193 10.984 23.8581 10.9776 23.6996 10.9731C23.5401 10.9672 23.389 10.9649 23.2434 10.9649H20.7862V10.7674ZM23.8364 10.7674C24 10.7869 24.1912 10.8014 24.4073 10.8104C24.6243 10.82 24.8625 10.8245 25.1228 10.8245C25.4509 10.8245 25.7748 10.8082 26.0987 10.7742C26.4217 10.7425 26.7304 10.67 27.0239 10.5608C27.3179 10.452 27.5925 10.2957 27.8482 10.0927C28.1039 9.8884 28.3324 9.62017 28.5352 9.28851C28.8429 8.77743 29.0577 8.25366 29.1784 7.71811C29.2991 7.18301 29.3594 6.59716 29.3594 5.96239C29.3594 5.21433 29.2862 4.53379 29.142 3.92303C28.9973 3.31181 28.7586 2.78986 28.4264 2.35942C28.0938 1.92763 27.6533 1.5937 27.1045 1.35628C26.5539 1.12022 25.8752 1.00106 25.0657 1.00106C24.8247 1.00106 24.6049 1.00559 24.4077 1.01556C24.2105 1.02507 24.0193 1.03504 23.8369 1.0441L23.8364 10.7674Z" stroke="black" stroke-width="0.2835" stroke-miterlimit="10"/>
<path d="M32.0995 10.7674H33.7039V1.04365H32.0995V0.845198H34.8461C34.9622 0.845198 35.0774 0.842933 35.1935 0.838402C35.3091 0.832965 35.4239 0.826619 35.5405 0.816198C35.6556 0.816198 35.7717 0.813934 35.8865 0.808496C36.0026 0.803966 36.1182 0.801701 36.2334 0.801701C36.802 0.801701 37.3037 0.832512 37.7369 0.893679C38.1709 0.955299 38.5754 1.13336 38.9509 1.42787C39.2882 1.68296 39.5269 1.97203 39.6665 2.29508C39.8061 2.61677 39.8766 2.92035 39.8766 3.20398C39.8766 3.34625 39.8503 3.5302 39.7973 3.75086C39.7444 3.97378 39.6282 4.20168 39.4499 4.43457C39.2716 4.66655 39.0141 4.88041 38.6773 5.07388C38.3395 5.26871 37.8912 5.39829 37.3319 5.46489V5.49299C37.4867 5.51247 37.6959 5.54781 37.9617 5.60037C38.2266 5.65202 38.4962 5.73992 38.7712 5.8618C39.0459 5.98549 39.2988 6.14951 39.5296 6.35295C39.7605 6.55638 39.9254 6.81963 40.0213 7.14178C40.0789 7.33207 40.1194 7.54729 40.1443 7.78924C40.1683 8.03074 40.1871 8.27903 40.2019 8.53457C40.2171 8.79147 40.2305 9.0375 40.2447 9.27401C40.2595 9.51098 40.2862 9.71124 40.3244 9.87164C40.3825 10.1177 40.4742 10.3406 40.5995 10.5399C40.7244 10.7384 40.9262 10.8385 41.2063 10.8385C41.3312 10.8385 41.462 10.8141 41.5975 10.7674C41.7316 10.7203 41.8523 10.6446 41.9583 10.5399L42.0877 10.6958C42.0403 10.7343 41.9845 10.7742 41.9223 10.8172C41.8592 10.8598 41.78 10.9006 41.6832 10.9382C41.5874 10.9754 41.4694 11.0071 41.3293 11.0302C41.1893 11.0547 41.0183 11.0664 40.8151 11.0664C40.43 11.0664 40.1093 11.0193 39.8545 10.9246C39.5997 10.829 39.3942 10.689 39.2403 10.5046C39.0855 10.3188 38.9726 10.0927 38.8998 9.82134C38.8279 9.55176 38.7777 9.23641 38.7482 8.8762L38.6464 7.58309C38.6081 7.10961 38.5114 6.73943 38.3584 6.47347C38.2036 6.20977 38.0225 6.01494 37.8152 5.89216C37.6083 5.76937 37.3941 5.69506 37.172 5.6715C36.9508 5.64839 36.7578 5.63525 36.5942 5.63525H35.1488V10.7678H36.7532V10.9663H32.0995V10.7674ZM35.1507 5.4368H36.4799C36.7499 5.4368 36.996 5.40373 37.2176 5.33667C37.4388 5.27052 37.63 5.15453 37.7889 4.98915C37.9479 4.82242 38.0704 4.59813 38.1571 4.31359C38.2441 4.02905 38.2879 3.66839 38.2879 3.23298C38.2879 2.74092 38.2225 2.34402 38.0926 2.04543C37.9631 1.74775 37.7944 1.52256 37.5862 1.36987C37.3788 1.21945 37.1476 1.11932 36.8928 1.0722C36.637 1.02507 36.3836 1.00061 36.1334 1.00061C35.9597 1.00061 35.7842 1.00423 35.6059 1.00876C35.4276 1.01329 35.2751 1.02507 35.1511 1.04365L35.1507 5.4368Z" stroke="black" stroke-width="0.2835" stroke-miterlimit="10"/>
<path d="M43.1604 10.7674H44.7647V1.04365H43.1604V0.8452H51.4291V3.30411H51.2701C51.1452 2.9353 51.0102 2.60998 50.866 2.33088C50.7218 2.05087 50.5485 1.81436 50.3458 1.62043C50.1426 1.42561 49.9012 1.28198 49.6238 1.18728C49.3437 1.09168 49.0055 1.04456 48.6111 1.04456H46.2115V5.43771H47.1514C47.4689 5.43771 47.7398 5.40916 47.961 5.35208C48.1821 5.29635 48.3724 5.18851 48.5314 5.03219C48.6899 4.87633 48.8253 4.66338 48.9368 4.39289C49.0465 4.12239 49.1562 3.77442 49.2621 3.34761H49.4211V7.7684H49.2621C49.1949 7.49383 49.1253 7.22923 49.052 6.97187C48.9806 6.71678 48.8783 6.48933 48.7489 6.29042C48.6185 6.09152 48.4457 5.93203 48.2282 5.81332C48.0121 5.69552 47.7292 5.63526 47.3832 5.63526H46.2119V10.7679H48.9442C49.4741 10.7679 49.9146 10.6568 50.2675 10.4339C50.6195 10.211 50.9056 9.94595 51.1259 9.6383C51.3489 9.32929 51.5115 9.00941 51.6175 8.67775C51.7235 8.34745 51.7912 8.07152 51.8202 7.85494H51.9797V10.9668H43.1608L43.1604 10.7674Z" stroke="black" stroke-width="0.2835" stroke-miterlimit="10"/>
<path d="M52.7298 0.844749H57.1981V1.0432H55.5938L58.8034 9.28761L61.9683 1.0432H60.3935V0.844749H63.5141V1.0432H62.2153L58.3261 11.1788H57.9644L54.0314 1.0432H52.7298V0.844749Z" stroke="black" stroke-width="0.2835" stroke-miterlimit="10"/>
<path d="M64.5195 10.7674H66.1238V1.04365H64.5195V0.8452H69.1745V1.04365H67.5701V10.7674H69.1745V10.9658H64.5195V10.7674Z" stroke="black" stroke-width="0.2835" stroke-miterlimit="10"/>
<path d="M79.3516 10.9658H79.1341C79.0669 10.8911 78.9899 10.8222 78.9042 10.7606C78.8157 10.699 78.6807 10.6682 78.4978 10.6682C78.3536 10.6682 78.1965 10.6935 78.0283 10.7466C77.8601 10.7978 77.668 10.8571 77.4505 10.9246C77.2331 10.9894 76.9902 11.0488 76.7198 11.1018C76.4507 11.153 76.1512 11.1797 75.8241 11.1797C75.2177 11.1797 74.6266 11.071 74.0529 10.8521C73.4793 10.6346 72.9365 10.2794 72.4265 9.78601C71.9556 9.3225 71.5584 8.77199 71.2405 8.13767C70.923 7.50289 70.7636 6.76889 70.7636 5.93475C70.7636 5.22385 70.8954 4.54603 71.1548 3.90084C71.4147 3.257 71.7768 2.68746 72.239 2.19541C72.7015 1.7029 73.2462 1.31188 73.8728 1.02281C74.4994 0.733741 75.1836 0.588753 75.9254 0.588753C76.2245 0.588753 76.4903 0.617299 76.7207 0.674388C76.9525 0.730118 77.1593 0.795361 77.3436 0.866496C77.5261 0.936725 77.6947 1.00061 77.8482 1.0577C78.0039 1.11524 78.1532 1.14333 78.2983 1.14333C78.49 1.14333 78.6268 1.11298 78.7098 1.05C78.7918 0.989739 78.8669 0.920415 78.9342 0.844749H79.1498V3.68698H78.9908C78.9051 3.32768 78.7932 2.972 78.6582 2.62222C78.5227 2.27062 78.3366 1.96071 78.0947 1.69021C77.8541 1.41972 77.5482 1.20224 77.1773 1.0364C76.8064 0.870574 76.3456 0.788113 75.7964 0.788113C75.2864 0.788113 74.8473 0.866043 74.4801 1.02236C74.1147 1.17867 73.8055 1.38755 73.5553 1.64762C73.3051 1.90815 73.1042 2.21126 72.9559 2.55742C72.8061 2.90404 72.6928 3.26832 72.6163 3.65299C72.5398 4.03676 72.4887 4.4246 72.4643 4.81788C72.4408 5.21117 72.4279 5.58361 72.4279 5.9343C72.4279 6.92837 72.5103 7.753 72.6748 8.40635C72.8379 9.06152 73.066 9.57804 73.36 9.95682C73.6544 10.3361 74.0082 10.6011 74.4238 10.7529C74.8367 10.9056 75.2956 10.9804 75.7964 10.9804C76.4406 10.9804 76.9617 10.8911 77.357 10.7099C77.7533 10.5304 78.0716 10.2953 78.3126 10.0062C78.5522 9.71714 78.737 9.39137 78.8604 9.02527C78.9867 8.66008 79.0964 8.29806 79.1931 7.9374H79.3525L79.3516 10.9658Z" stroke="black" stroke-width="0.2835" stroke-miterlimit="10"/>
<path d="M80.8357 10.7674H82.44V1.04365H80.8357V0.8452H85.4907V1.04365H83.8863V5.6928H88.6998V1.04365H87.0955V0.8452H91.75V1.04365H90.1457V10.7674H91.75V10.9658H87.0955V10.7674H88.6998V5.8917H83.8859V10.7674H85.4902V10.9658H80.8357V10.7674Z" stroke="black" stroke-width="0.2835" stroke-miterlimit="10"/>
</svg>
