<svg width="115" height="17" viewBox="0 0 115 17" fill="none" xmlns="http://www.w3.org/2000/svg">
<path d="M16.6657 7.11468C16.6452 7.30256 16.5518 7.47492 16.4057 7.59483L12.7695 11.1377L13.6313 16.1419C13.6394 16.2084 13.6429 16.2754 13.6418 16.3424C13.6447 16.4671 13.608 16.5895 13.5369 16.692C13.5024 16.7401 13.4564 16.7788 13.4029 16.8042C13.3495 16.8297 13.2904 16.8412 13.2313 16.8377C13.0901 16.8344 12.9522 16.7943 12.8313 16.7211L8.33227 14.3612L3.83553 16.7223C3.71393 16.7937 3.57647 16.8338 3.43553 16.8389C3.37506 16.8427 3.31459 16.8314 3.2596 16.8059C3.20462 16.7805 3.15686 16.7417 3.12067 16.6932C3.04929 16.5907 3.01215 16.4684 3.01454 16.3436C3.01702 16.2764 3.02364 16.2095 3.03437 16.1431L3.89617 11.1388L0.250726 7.59483C0.111149 7.47085 0.0219364 7.30001 0 7.11468C0 6.86761 0.186976 6.71417 0.560927 6.65434L5.58944 5.92363L7.84248 1.36921C7.9692 1.09573 8.13247 0.958984 8.33227 0.958984C8.53207 0.958984 8.69573 1.09573 8.82323 1.36921L11.0786 5.92363L16.1059 6.65434C16.4799 6.71417 16.6669 6.86761 16.6669 7.11468H16.6657Z" fill="#111111"/>
<path d="M41.1227 7.11468C41.1022 7.30256 41.0089 7.47492 40.8627 7.59483L37.2266 11.1377L38.0884 16.1419C38.0964 16.2084 38.0999 16.2754 38.0989 16.3424C38.1018 16.4671 38.065 16.5895 37.9939 16.692C37.9595 16.7401 37.9134 16.7788 37.8599 16.8042C37.8065 16.8297 37.7475 16.8412 37.6884 16.8377C37.5471 16.8344 37.4092 16.7943 37.2884 16.7211L32.7893 14.3612L28.2926 16.7223C28.171 16.7937 28.0335 16.8338 27.8926 16.8389C27.8321 16.8427 27.7716 16.8314 27.7166 16.8059C27.6616 16.7805 27.6139 16.7417 27.5777 16.6932C27.5063 16.5907 27.4692 16.4684 27.4716 16.3436C27.474 16.2764 27.4807 16.2095 27.4914 16.1431L28.3532 11.1388L24.7078 7.59483C24.5682 7.47085 24.479 7.30001 24.457 7.11468C24.457 6.86761 24.644 6.71417 25.018 6.65434L30.0465 5.92363L32.2995 1.36921C32.4262 1.09573 32.5895 0.958984 32.7893 0.958984C32.9891 0.958984 33.1528 1.09573 33.2803 1.36921L35.5356 5.92363L40.563 6.65434C40.9369 6.71417 41.1239 6.86761 41.1239 7.11468H41.1227Z" fill="#111111"/>
<path d="M65.5798 7.11468C65.5593 7.30256 65.4659 7.47492 65.3197 7.59483L61.6836 11.1377L62.5454 16.1419C62.5534 16.2084 62.5569 16.2754 62.5559 16.3424C62.5588 16.4671 62.522 16.5895 62.4509 16.692C62.4165 16.7401 62.3704 16.7788 62.317 16.8042C62.2635 16.8297 62.2045 16.8412 62.1454 16.8377C62.0042 16.8344 61.8663 16.7943 61.7454 16.7211L57.2463 14.3612L52.7496 16.7223C52.628 16.7937 52.4905 16.8338 52.3496 16.8389C52.2891 16.8427 52.2287 16.8314 52.1737 16.8059C52.1187 16.7805 52.0709 16.7417 52.0347 16.6932C51.9634 16.5907 51.9262 16.4684 51.9286 16.3436C51.9311 16.2764 51.9377 16.2095 51.9484 16.1431L52.8102 11.1388L49.1648 7.59483C49.0252 7.47085 48.936 7.30001 48.9141 7.11468C48.9141 6.86761 49.101 6.71417 49.475 6.65434L54.5035 5.92363L56.7565 1.36921C56.8833 1.09573 57.0465 0.958984 57.2463 0.958984C57.4461 0.958984 57.6098 1.09573 57.7373 1.36921L59.9927 5.92363L65.02 6.65434C65.394 6.71417 65.5809 6.86761 65.5809 7.11468H65.5798Z" fill="#111111"/>
<path d="M90.0368 7.11468C90.0163 7.30256 89.9229 7.47492 89.7767 7.59483L86.1406 11.1377L87.0024 16.1419C87.0104 16.2084 87.014 16.2754 87.0129 16.3424C87.0158 16.4671 86.9791 16.5895 86.908 16.692C86.8735 16.7401 86.8274 16.7788 86.774 16.8042C86.7206 16.8297 86.6615 16.8412 86.6024 16.8377C86.4612 16.8344 86.3233 16.7943 86.2024 16.7211L81.7034 14.3612L77.2066 16.7223C77.085 16.7937 76.9476 16.8338 76.8066 16.8389C76.7462 16.8427 76.6857 16.8314 76.6307 16.8059C76.5757 16.7805 76.528 16.7417 76.4918 16.6932C76.4204 16.5907 76.3832 16.4684 76.3856 16.3436C76.3881 16.2764 76.3947 16.2095 76.4055 16.1431L77.2673 11.1388L73.6218 7.59483C73.4822 7.47085 73.393 7.30001 73.3711 7.11468C73.3711 6.86761 73.5581 6.71417 73.932 6.65434L78.9605 5.92363L81.2136 1.36921C81.3403 1.09573 81.5036 0.958984 81.7034 0.958984C81.9032 0.958984 82.0668 1.09573 82.1943 1.36921L84.4497 5.92363L89.477 6.65434C89.851 6.71417 90.038 6.86761 90.038 7.11468H90.0368Z" fill="#111111"/>
<path d="M114.494 7.11468C114.473 7.30256 114.38 7.47492 114.234 7.59483L110.598 11.1377L111.459 16.1419C111.467 16.2084 111.471 16.2754 111.47 16.3424C111.473 16.4671 111.436 16.5895 111.365 16.692C111.331 16.7401 111.284 16.7788 111.231 16.8042C111.178 16.8297 111.119 16.8412 111.059 16.8377C110.918 16.8344 110.78 16.7943 110.659 16.7211L106.16 14.3612L101.664 16.7223C101.542 16.7937 101.405 16.8338 101.264 16.8389C101.203 16.8427 101.143 16.8314 101.088 16.8059C101.033 16.7805 100.985 16.7417 100.949 16.6932C100.877 16.5907 100.84 16.4684 100.843 16.3436C100.845 16.2764 100.852 16.2095 100.862 16.1431L101.724 11.1388L98.0789 7.59483C97.9393 7.47085 97.8501 7.30001 97.8281 7.11468C97.8281 6.86761 98.0151 6.71417 98.3891 6.65434L103.418 5.92363L105.671 1.36921C105.797 1.09573 105.961 0.958984 106.16 0.958984C106.36 0.958984 106.524 1.09573 106.651 1.36921L108.907 5.92363L113.934 6.65434C114.308 6.71417 114.495 6.86761 114.495 7.11468H114.494Z" fill="#111111"/>
</svg>
