<svg width="195" height="50" viewBox="0 0 195 50" fill="none" xmlns="http://www.w3.org/2000/svg">
<path d="M0 19.7724C2.83966 19.6896 3.28793 19.2172 3.28793 17.8534V2.76205C3.28793 1.42756 2.83966 0.925839 0 0.837908V0.61377H7.87931C13.281 0.61377 15.5638 2.86894 15.5638 5.84825C15.5638 8.6586 13.2793 11.3069 7.68448 11.3069H5.65517V17.8586C5.65517 19.281 6.18621 19.6948 9.10345 19.7776V20.0258H0V19.7724ZM7.82069 10.8896C12 10.8896 12.8621 8.99308 12.8621 5.87756C12.8621 3.09136 11.9414 1.03101 7.90517 1.03101H5.65517V10.8896H7.82759H7.82069Z" fill="black"/>
<path d="M21.3868 17.8776C21.3868 19.2414 21.7471 19.6896 24.5333 19.7741V20.0224H15.7402V19.7741C18.5799 19.6914 19.0282 19.2189 19.0282 17.8552V2.76205C19.0282 1.42756 18.5799 0.925839 15.7402 0.837908V0.61377H23.8437C28.9678 0.61377 31.8351 2.44998 31.8351 5.34825C31.8351 7.85687 30.1109 9.63446 25.9868 10.2776V10.3603C30.0247 10.7793 30.8868 12.3086 31.3058 15.3172L31.4782 16.5155C31.9264 19.131 32.3989 19.6914 35.0437 19.6914V19.9155C34.0962 20.0803 33.1364 20.1634 32.1747 20.1638C29.7247 20.1638 29.223 18.9655 28.9161 16.462L28.6092 13.9534C28.273 11.1672 27.4402 10.5293 24.1264 10.5293H21.3868V17.8776ZM24.0316 10.1103C28.2109 10.1103 29.1264 8.49308 29.1264 5.37584C29.1264 2.45342 27.792 1.03101 23.6971 1.03101H21.3868V10.1086H24.0368L24.0316 10.1103Z" fill="black"/>
<path d="M33.3839 10.3637C33.2515 7.78832 34.1468 5.26566 35.8731 3.34991C37.5994 1.43416 40.0156 0.281984 42.5908 0.146484C47.3546 0.146484 51.7512 4.07235 51.7512 10.281C51.8796 12.8525 50.9852 15.3704 49.2634 17.2847C47.5416 19.199 45.1323 20.3543 42.5615 20.4982C37.7822 20.4982 33.3839 16.5448 33.3839 10.3637ZM49.0064 10.3344C49.0064 2.73269 46.1374 0.530967 42.4908 0.530967C38.8702 0.530967 36.1408 2.73269 36.1408 10.3051C36.1408 17.8775 39.0098 20.1086 42.6564 20.1086C46.2753 20.1086 49.0064 17.8792 49.0064 10.3344Z" fill="black"/>
<path d="M52.1426 19.7724C54.9822 19.6896 55.4305 19.2172 55.4305 17.8534V2.76205C55.4305 1.42756 54.9822 0.949976 52.1426 0.865494V0.61377H67.5133L67.7615 6.46205L67.5133 6.49136C65.9253 2.34136 64.8978 1.03274 62.1409 1.03274H57.796V9.96894H60.2753C62.3064 9.96894 63.0029 9.24308 63.7236 6.17584H63.9719V14.2H63.7236C62.9978 11.1362 62.3012 10.3862 60.2753 10.3862H57.796V17.8465C57.796 19.2396 58.3271 19.6827 61.1374 19.7655V20.0138H52.1426V19.7724Z" fill="black"/>
<path d="M67.8743 19.7724C70.714 19.6896 71.1623 19.2172 71.1623 17.8534V2.76205C71.1623 1.42756 70.714 0.925839 67.8743 0.837908V0.61377H83.4933L83.576 6.32067L83.3278 6.34998C81.8519 2.34136 80.914 1.03101 78.2329 1.03101H73.5278V9.71722H76.1795C78.2105 9.71722 78.9381 8.96722 79.6623 5.90343H79.9105V13.9776H79.6623C78.9364 10.9138 78.2157 10.1345 76.1795 10.1345H73.5347V19.6017H78.7071C81.6295 19.6017 82.6623 18.2086 84.1916 13.9483L84.4398 13.9776L84.2985 20.0207H67.8691V19.7672L67.8743 19.7724Z" fill="black"/>
<path d="M85.5526 13.6759H85.8009C87.3302 18.1586 89.0888 19.9965 92.4285 19.9965C92.9941 20.0543 93.5656 19.9893 94.1038 19.8058C94.642 19.6223 95.1342 19.3248 95.5467 18.9335C95.9593 18.5422 96.2825 18.0664 96.4942 17.5387C96.7059 17.011 96.8011 16.4438 96.7733 15.8759C96.7733 13.4259 95.3802 12.369 91.7043 11.2207C88.3043 10.1638 85.9681 9.10171 85.9681 5.87585C85.99 5.08491 86.1725 4.30669 86.5047 3.58854C86.8368 2.87038 87.3116 2.22731 87.9001 1.69846C88.4886 1.1696 89.1786 0.766017 89.9281 0.512262C90.6775 0.258507 91.4707 0.159886 92.2595 0.222402C93.741 0.232864 95.2058 0.535785 96.5698 1.11378L97.4906 0.0568848H97.7147V6.15516H97.4906C95.9854 2.11723 94.3974 0.613781 91.9199 0.613781C91.3977 0.575389 90.8733 0.648566 90.3816 0.828449C89.8899 1.00833 89.4422 1.2908 89.068 1.65709C88.6939 2.02337 88.4021 2.46508 88.2118 2.95287C88.0216 3.44065 87.9373 3.96334 87.9647 4.4862C87.9647 6.99482 89.494 7.82757 92.9474 8.91378C96.2595 9.94827 98.6268 11.0862 98.6268 14.3724C98.6341 15.1989 98.4706 16.0181 98.1466 16.7785C97.8226 17.5389 97.3451 18.2243 96.744 18.7916C96.1428 19.3589 95.4311 19.7959 94.6532 20.0754C93.8753 20.3548 93.048 20.4706 92.2233 20.4155C90.4951 20.3706 88.7999 19.9325 87.2664 19.1345L85.7612 20.5276H85.5371V13.6759H85.5526Z" fill="black"/>
<path d="M99.8393 13.6758H100.088C101.617 18.1586 103.375 19.9965 106.715 19.9965C107.281 20.0543 107.852 19.9892 108.39 19.8058C108.929 19.6223 109.421 19.3247 109.833 18.9335C110.246 18.5422 110.569 18.0664 110.781 17.5387C110.993 17.011 111.088 16.4438 111.06 15.8758C111.06 13.4258 109.667 12.3689 105.991 11.2207C102.591 10.1638 100.255 9.1017 100.255 5.87583C100.277 5.0849 100.459 4.30668 100.791 3.58852C101.123 2.87037 101.598 2.2273 102.187 1.69844C102.775 1.16959 103.465 0.766002 104.215 0.512247C104.964 0.258492 105.757 0.159871 106.546 0.222386C108.028 0.232848 109.492 0.53577 110.857 1.11377L111.774 0.0585938H111.998V6.15515H111.774C110.269 2.11721 108.681 0.613766 106.203 0.613766C105.681 0.575374 105.157 0.648551 104.665 0.828434C104.173 1.00832 103.725 1.29079 103.351 1.65707C102.977 2.02336 102.685 2.46507 102.495 2.95285C102.305 3.44064 102.221 3.96333 102.248 4.48618C102.248 6.9948 103.777 7.82756 107.231 8.91377C110.543 9.94825 112.91 11.0862 112.91 14.3724C112.917 15.1989 112.754 16.0181 112.43 16.7785C112.106 17.5389 111.628 18.2242 111.027 18.7915C110.426 19.3589 109.714 19.7959 108.936 20.0754C108.158 20.3548 107.331 20.4706 106.507 20.4155C104.778 20.3705 103.083 19.9324 101.55 19.1345L100.044 20.5276H99.8203V13.6758H99.8393Z" fill="black"/>
<path d="M113.396 19.7724C116.319 19.6896 116.796 19.2414 116.796 17.8534V2.76205C116.796 1.39825 116.324 0.925839 113.396 0.837908V0.61377H122.534V0.837908C119.612 0.920666 119.134 1.39308 119.134 2.76205V17.8552C119.134 19.2483 119.607 19.6914 122.534 19.7741V20.0224H113.396V19.7724Z" fill="black"/>
<path d="M123.011 10.3637C122.879 7.78718 123.775 5.26353 125.503 3.34758C127.23 1.43163 129.648 0.28022 132.225 0.146484C136.987 0.146484 141.385 4.07235 141.385 10.281C141.513 12.8525 140.619 15.3704 138.897 17.2847C137.175 19.199 134.766 20.3543 132.195 20.4982C127.413 20.4982 123.011 16.5448 123.011 10.3637ZM138.633 10.3344C138.633 2.73269 135.764 0.530967 132.118 0.530967C128.497 0.530967 125.768 2.73269 125.768 10.3051C125.768 17.8775 128.637 20.1086 132.283 20.1086C135.902 20.1086 138.633 17.8792 138.633 10.3344Z" fill="black"/>
<path d="M145.633 2.98101H145.579V16.5396C145.579 18.6827 146.052 19.3793 149.028 19.7689V20.0172H141.707V19.7689C144.517 19.3793 145.078 18.6827 145.078 16.5396V3.57067C145.078 2.06549 144.328 1.0086 141.707 0.84308V0.61377H146.942L158.464 16.2362H158.493V4.06722C158.493 1.92411 157.879 1.22756 154.957 0.837908V0.61377H162.198V0.837908C159.44 1.25687 158.993 1.95342 158.993 4.06722V20.4931H158.604L145.633 2.98101Z" fill="black"/>
<path d="M172.321 12.4828H165.38L164.24 15.4638C162.959 18.7759 163.266 19.5017 166.077 19.7741V20.0224H159.697V19.7741C161.621 19.4379 162.342 18.6879 163.652 15.4L169.778 0H170.168L176.459 16.7621C177.351 19.1586 177.687 19.5724 179.883 19.7672V20.0155H171.608V19.7672C174.477 19.6552 174.701 19.0776 174.058 17.2879L172.321 12.4828ZM172.18 12.0397L169.033 3.32241H168.951L165.552 12.0345L172.18 12.0397Z" fill="black"/>
<path d="M178.613 19.7724C181.453 19.6896 181.901 19.2172 181.901 17.8534V2.76205C181.901 1.42756 181.458 0.925839 178.613 0.837908V0.61377H187.496V0.837908C184.598 0.920666 184.267 1.36894 184.267 2.76205V19.6069H188.275C191.144 19.6069 192.26 18.5724 193.929 14.0896L194.177 14.1189L193.899 20.0207H178.613V19.7724Z" fill="black"/>
<path d="M0.574401 45.2925C0.545303 44.9812 0.580203 44.6673 0.676952 44.37C0.773702 44.0728 0.930255 43.7984 1.13698 43.5639C1.3437 43.3294 1.59622 43.1397 1.87901 43.0064C2.16179 42.8732 2.46885 42.7992 2.7813 42.789C3.05448 42.7836 3.32585 42.8347 3.57838 42.939C3.83092 43.0433 4.05918 43.1987 4.24888 43.3954C4.43858 43.592 4.58563 43.8257 4.6808 44.0819C4.77598 44.338 4.81723 44.611 4.80199 44.8838C4.80358 45.5031 4.56847 46.0995 4.14476 46.5511C3.72105 47.0027 3.14077 47.2753 2.52268 47.3131C3.02561 47.8628 3.63864 48.3004 4.32187 48.5974C5.0051 48.8945 5.74321 49.0444 6.48819 49.0373C9.59164 49.0373 10.9003 46.87 10.9003 42.8666V25.8114C10.9003 24.0528 10.4916 23.3425 6.37613 23.2252V22.9338H18.4882V23.2304C14.7141 23.3425 14.0761 24.0149 14.0761 25.8459V41.6925C14.0761 46.4011 11.9434 49.6235 6.97095 49.6235C2.9313 49.6235 0.574401 47.4976 0.574401 45.2925Z" fill="black"/>
<path d="M19.2656 48.657C23.0794 48.5449 23.6777 47.907 23.6777 46.0708V25.8104C23.6777 24.0191 23.0794 23.3415 19.2656 23.2242V22.9329H40.2415L40.3536 30.5984L40.0173 30.638C38.0346 25.257 36.7639 23.4984 33.1742 23.4984H26.8536V35.1622H30.4036C33.1311 35.1622 34.1053 34.1536 35.0794 30.038H35.4156V40.8794H35.0794C34.1053 36.7691 33.1363 35.7225 30.4036 35.7225H26.8536V48.4329H33.8087C37.7346 48.4329 39.1174 46.5622 41.1725 40.8467L41.5087 40.8863L41.3242 49.0001H19.2656V48.657Z" fill="black"/>
<path d="M59.8018 27.2725C58.6431 23.6829 58.0431 23.3863 55.35 23.2346V22.938H65.8156V23.2432C62.3776 23.3949 62.0414 23.9536 62.8983 26.5691L68.6931 44.588H68.8052L73.85 28.6967C75.1949 24.4346 74.6 23.5725 70.8983 23.238V22.9329H79.7966V23.2294C76.9569 23.526 75.8707 24.9104 74.5276 29.0639L67.8362 49.776H67.319L60.8173 30.2225L53.5966 49.776H53.0793L45.9759 27.2725C44.9673 24.0587 44.369 23.5329 41.4121 23.2346V22.938H52.1018V23.2432C48.6638 23.3949 48.5518 24.3639 49.2242 26.5691L54.569 44.7001H54.6811L60.438 29.257L59.8018 27.2725Z" fill="black"/>
<path d="M78.8477 48.657C82.6614 48.5449 83.2597 47.907 83.2597 46.0708V25.8104C83.2597 24.0191 82.6614 23.3415 78.8477 23.2242V22.9329H99.8235L99.9356 30.5984L99.5994 30.638C97.6166 25.257 96.3459 23.4984 92.7563 23.4984H86.439V35.1622H89.9856C92.7132 35.1622 93.6873 34.1536 94.6614 30.038H94.9977V40.8794H94.6614C93.6873 36.7691 92.7183 35.7225 89.9856 35.7225H86.4356V48.4329H93.3908C97.3166 48.4329 98.6994 46.5622 100.755 40.8467L101.091 40.8863L100.906 49.0001H78.8528V48.6553L78.8477 48.657Z" fill="black"/>
<path d="M102.514 48.657C106.327 48.5449 106.926 47.907 106.926 46.0708V25.8104C106.926 24.0191 106.327 23.3415 102.514 23.2242V22.9329H114.441V23.2294C110.555 23.3415 110.102 23.9398 110.102 25.8156V48.4277H115.483C119.334 48.4277 120.827 47.0484 123.069 41.026L123.405 41.0656L123.031 48.9967H102.514V48.657Z" fill="black"/>
<path d="M124.033 48.657C127.847 48.5449 128.445 47.907 128.445 46.0708V25.8104C128.445 24.0191 127.847 23.3415 124.033 23.2242V22.9329H135.961V23.2294C132.075 23.3415 131.621 23.9398 131.621 25.8156V48.4277H137.002C140.854 48.4277 142.347 47.0484 144.588 41.026L144.925 41.0656L144.55 48.9967H124.033V48.657Z" fill="black"/>
<path d="M145.092 48.657C148.906 48.5449 149.504 47.907 149.504 46.0708V25.8104C149.504 24.0191 148.906 23.3415 145.092 23.2242V22.9329H166.068L166.18 30.5984L165.843 30.638C163.861 25.257 162.59 23.4984 159 23.4984H152.678V35.1622H156.228C158.956 35.1622 159.93 34.1536 160.904 30.038H161.24V40.8794H160.904C159.93 36.7691 158.961 35.7225 156.228 35.7225H152.678V48.4329H159.633C163.559 48.4329 164.942 46.5622 166.997 40.8467L167.333 40.8863L167.149 49.0001H145.092V48.657Z" fill="black"/>
<path d="M176.683 46.1139C176.683 47.9449 177.169 48.5432 180.905 48.6553V48.9915H169.09V48.657C172.904 48.5449 173.502 47.907 173.502 46.0708V25.8104C173.502 24.0191 172.904 23.3415 169.09 23.2242V22.9329H179.969C186.85 22.9329 190.698 25.4018 190.698 29.288C190.698 32.6536 188.379 35.0449 182.848 35.907V36.0191C188.269 36.5794 189.428 38.6346 189.988 42.6708L190.212 44.2777C190.811 47.7932 191.445 48.5398 195 48.5398V48.8363C193.728 49.0595 192.44 49.172 191.148 49.1725C187.857 49.1725 187.183 47.5656 186.776 44.2001L186.366 40.8294C185.917 37.0898 184.797 36.2329 180.347 36.2329H176.685L176.683 46.1139ZM180.233 35.6829C185.838 35.6829 187.076 33.5156 187.076 29.3277C187.076 25.4018 185.28 23.4932 179.786 23.4932H176.683V35.6829H180.233Z" fill="black"/>
</svg>
